<?xml version="1.0" encoding="UTF-8"?>
<svg id="Layer_1" xmlns="http://www.w3.org/2000/svg" version="1.1" viewBox="0 0 1112.8 226">
  <!-- Generator: Adobe Illustrator 30.2.1, SVG Export Plug-In . SVG Version: 2.1.1 Build 1)  -->
  <defs>
    <style>
      .st0 {
        fill: #e6ffa7;
      }
    </style>
  </defs>
  <g>
    <path class="st0" d="M16.4,7.2h46.5c32.6,0,53.2,19.7,53.2,53.2s-20.3,54.2-53.7,54.2H16.4V7.2ZM86.5,60.4c0-20.9-7-35.4-28.4-35.4h-12.3v71.8h10.9c22.2,0,29.8-14.5,29.8-36.4Z"/>
    <path class="st0" d="M127.1,7.2h28.4v22.8h-28.4V7.2ZM127.1,37.4h28.4v77.1h-28.4V37.4Z"/>
    <path class="st0" d="M164.5,89.6l22.9-1.4c1.1,11.1,6.7,17.6,17.9,17.6s12.2-4.8,12.2-10.3-4.2-7.5-11.9-9.2l-12.3-2.7c-16.4-3.6-26.1-10.1-26.1-23.7s14.2-24.3,36.2-24.3,36.1,8.7,37.8,24.2l-23.3,1.4c-.6-8.9-4.8-15-14.7-15s-10.9,3.3-10.9,9.1,4.1,7.3,11.4,8.9l11.4,2.7c18.4,4.2,27.9,10,27.9,23.4s-14.5,26.2-38.6,26.2-38.1-7.8-40.1-26.8Z"/>
    <path class="st0" d="M249.7,76.1c0-24.5,17.2-40.6,41-40.6s36.1,14.4,39.3,28.6l-24.3,4.1c-.8-10.5-3.6-18.4-12.5-18.4s-13.7,12.2-13.7,26.2,2,26.1,13.4,26.1,12.2-6.7,14.5-17.2l22.2,2.8c-5.2,16.9-16.2,28.7-39.3,28.7s-40.6-15.3-40.6-40.3Z"/>
    <path class="st0" d="M335.9,76c0-23.3,16.5-40.4,42.1-40.4s42.3,17.2,42.3,40.4-16.9,40.4-42.3,40.4-42.1-17-42.1-40.4ZM391.1,76c0-17.3-4.7-26.5-13.1-26.5s-13,9.1-13,26.5,4.7,26.5,13,26.5,13.1-9.1,13.1-26.5Z"/>
    <path class="st0" d="M421.4,37.4h28.6l15.1,55.4h.2l16.1-55.4h22.5l-26.1,77.1h-29.3l-27-77.1Z"/>
    <path class="st0" d="M505.1,75.7c0-25,16.5-40.1,42.3-40.1s40.4,16.2,40.4,41.4v3.9h-55.3c1.1,13.6,5.8,21.2,17.5,21.2s14.8-4.8,16.7-13l19.7,1.7c-4.1,15-15.3,25.6-38.1,25.6s-43.2-13.9-43.2-40.7ZM559.8,68.2c-.5-11.2-2.8-19.7-12.6-19.7s-13.6,8.4-14.2,19.7h26.8Z"/>
    <path class="st0" d="M598.4,37.4h26.7v14.8c4.4-10.6,13.3-16.7,24.7-16.7h3.7v22.8c-1.9-.3-3.7-.5-6.1-.5-11.4,0-21.2,5.6-21.2,20.8v35.9h-27.8V37.4Z"/>
    <path class="st0" d="M691.7,7.2h46.5c23.6,0,38.4,11.7,38.4,32.9s-13.9,34.6-36.8,34.6h-19.4v39.8h-28.7V7.2ZM734.2,57.9c9.8,0,14.7-6.9,14.7-16.9s-5-16.1-14.8-16.1h-13.6v32.9h13.7Z"/>
    <path class="st0" d="M779.6,93.3c0-15.1,11.2-20.1,29.5-24.2l10.6-2.3c6.6-1.4,10.8-3.9,10.8-9.8s-3.6-8.9-10.3-8.9-13.7,5.6-13.9,16.4l-25.1-1.4c1.4-15,15.1-27.5,39.6-27.5s36.1,10.3,36.1,27.9v51h-25.8v-8.6h-.2c-3.6,6.6-11.5,10.5-22.8,10.5-16.5,0-28.6-8.7-28.6-23.1ZM830.5,88.3v-11.2c-6.9,1.2-12.5,2.8-17.2,5.3-3.4,1.9-6.9,4.7-6.9,10.3s4.5,9.8,10.5,9.8c8.6,0,13.6-6.7,13.6-14.2Z"/>
    <path class="st0" d="M870.1,37.4h26.7v14.8c4.4-10.6,13.3-16.7,24.7-16.7h3.7v22.8c-1.9-.3-3.7-.5-6.1-.5-11.4,0-21.2,5.6-21.2,20.8v35.9h-27.8V37.4Z"/>
    <path class="st0" d="M961.2,79.4v35.1h-27.9V7.2h27.9v64.5l28.9-34.2h27.6l-29.8,34,32.5,43.1h-32.6l-26.5-35.1Z"/>
    <path class="st0" d="M1017.7,89.6l22.9-1.4c1.1,11.1,6.7,17.6,17.9,17.6s12.2-4.8,12.2-10.3-4.2-7.5-11.9-9.2l-12.3-2.7c-16.4-3.6-26.1-10.1-26.1-23.7s14.2-24.3,36.2-24.3,36.1,8.7,37.8,24.2l-23.3,1.4c-.6-8.9-4.8-15-14.7-15s-10.9,3.3-10.9,9.1,4.1,7.3,11.4,8.9l11.4,2.7c18.4,4.2,27.9,10,27.9,23.4s-14.5,26.2-38.6,26.2-38.1-7.8-40.1-26.8Z"/>
  </g>
  <g>
    <path class="st0" d="M448.4,165.3h17.6c8,0,13.3,3.5,13.3,10.7s-3,8.1-6,9.2h0c3.2.9,7.2,3.6,7.2,10s-4.3,12-13.8,12h-18.3v-41.8ZM471.9,176.9c0-3.7-2.5-5.3-6.3-5.3h-9.5v11.2h9.3c4.3,0,6.5-1.9,6.5-5.8ZM473.1,194.6c0-3.8-2.1-6.1-7.1-6.1h-10v12.4h10.2c4.8,0,6.8-2.7,6.8-6.3Z"/>
    <path class="st0" d="M485.5,218.5v-6c.9.2,1.8.2,2.6.2,2.9,0,4.4-.9,5.5-3.5l.9-2.1-11.1-30h8l7.2,22.4,7.1-22.4h8l-12,32.3c-2.5,6.7-5.8,9.4-12.2,9.4s-2.7-.2-3.8-.4Z"/>
    <path class="st0" d="M531.2,165.3h17.6c8,0,13.3,3.5,13.3,10.7s-3,8.1-6,9.2h0c3.2.9,7.2,3.6,7.2,10s-4.3,12-13.8,12h-18.3v-41.8ZM554.7,176.9c0-3.7-2.5-5.3-6.3-5.3h-9.5v11.2h9.3c4.3,0,6.5-1.9,6.5-5.8ZM555.9,194.6c0-3.8-2.1-6.1-7.1-6.1h-10v12.4h10.2c4.8,0,6.8-2.7,6.8-6.3Z"/>
    <path class="st0" d="M568.5,186.2c0-12.9,8.1-21.6,20.5-21.6s17,6.8,18.8,13.6l-7.9,1.7c-1.2-4.7-4.7-9-10.9-9s-12.6,6.1-12.6,15.3,4.9,15.3,12.6,15.3,10-3.9,11.2-9.2l7.8,1.7c-2.2,7.4-8.4,13.8-19.2,13.8s-20.5-8.6-20.5-21.6Z"/>
    <path class="st0" d="M627.3,165.3h16c8.9,0,14.5,4.1,14.5,12.7s-5.8,13.3-14.5,13.3h-8.4v15.9h-7.7v-41.8ZM642.7,185c5.2,0,7.5-2.4,7.5-6.7s-2.4-6.5-7.8-6.5h-7.5v13.2h7.8Z"/>
    <path class="st0" d="M660.7,198.9c0-5.7,4.3-8.1,10.9-9.4l3.8-.8c3.2-.7,4.6-1.3,4.6-3.5s-1.9-3.8-5.1-3.8-6.1,2.2-6.3,5.9l-7.4-.5c.5-6.4,5.8-10.5,13.7-10.5s12.5,3.7,12.5,10.2v20.5h-7.1v-3.3h0c-1.4,2.2-4.4,4-9.1,4s-10.5-3.3-10.5-8.9ZM680.2,196v-3.3c-5.3.9-8.2,1.6-10,2.7-1.3.8-2.2,1.9-2.2,3.5,0,2.4,2.1,4.1,5.2,4.1s7-2.6,7-7Z"/>
    <path class="st0" d="M694.5,177.1h7.2v5.6c1.4-3.4,4.6-6.3,9.2-6.3s1.1,0,1.6,0v7.1c-.5,0-1.2-.1-2.1-.1-4.9,0-8.5,2.9-8.5,8.6v15.1h-7.4v-30Z"/>
    <path class="st0" d="M724.4,192.3v14.9h-7.4v-41.8h7.4v25.5l11.5-13.7h9.4l-12.6,14,14.3,16h-9.5l-13.1-14.9Z"/>
    <path class="st0" d="M746.7,197.3l7-.8c.3,4.3,3.5,6.3,7.2,6.3s6.2-1.6,6.2-4.1-2.1-3.1-6-4l-4.4-1c-5.3-1.2-8.8-3.6-8.8-8.4s5.3-9,12.8-9,12.2,3.5,12.9,9.2l-7.1.9c-.4-3.3-2.7-5-6-5s-5.3,1.5-5.3,3.5,1.6,2.7,4.9,3.5l4.4,1c6.4,1.5,9.9,3.6,9.9,8.5s-5.7,9.9-13.4,9.9-13.5-3.5-14.2-10.6Z"/>
    <path class="st0" d="M793.8,165.3h27.4v6.4h-19.9v10.8h18.9v6.4h-18.9v18.1h-7.5v-41.8Z"/>
    <path class="st0" d="M824.4,192.1c0-8.8,5.7-15.7,15.3-15.7s15.3,7,15.3,15.7-5.7,15.7-15.3,15.7-15.3-6.9-15.3-15.7ZM847.3,192.1c0-5.7-2.5-10.1-7.5-10.1s-7.6,4.4-7.6,10.1,2.5,10.1,7.6,10.1,7.5-4.4,7.5-10.1Z"/>
    <path class="st0" d="M860.4,196.3v-19.2h7.5v17.4c0,4.4,1,7.3,5.3,7.3s6.6-3.5,6.6-7.8v-17h7.5v30h-7.4v-4h0c-1.9,2.9-5,4.7-9,4.7-6.8,0-10.4-4.4-10.4-11.5Z"/>
    <path class="st0" d="M894.6,177.1h7.4v4h0c1.6-2.5,4.9-4.7,9.4-4.7,6.5,0,10.6,3.9,10.6,11.5v19.2h-7.5v-16.6c0-4.8-1-8.1-5.5-8.1s-6.9,3.6-6.9,8.2v16.5h-7.5v-30Z"/>
    <path class="st0" d="M927.5,192.1c0-9.6,5.8-15.7,13.6-15.7s8.1,2.5,9.6,4.8v-15.9h7.5v41.8h-7.4v-4.3c-1.7,2.6-4.8,5-9.7,5-7.8,0-13.6-6.1-13.6-15.7ZM951,192.1c0-5.5-2.7-10.1-8-10.1s-7.8,4.5-7.8,10.1,2.6,10.1,7.8,10.1,8-4.6,8-10.1Z"/>
    <path class="st0" d="M964.2,198.9c0-5.7,4.3-8.1,10.9-9.4l3.8-.8c3.2-.7,4.6-1.3,4.6-3.5s-1.9-3.8-5.1-3.8-6.1,2.2-6.3,5.9l-7.4-.5c.5-6.4,5.8-10.5,13.7-10.5s12.5,3.7,12.5,10.2v20.5h-7.1v-3.3h0c-1.4,2.2-4.4,4-9.1,4s-10.5-3.3-10.5-8.9ZM983.8,196v-3.3c-5.3.9-8.2,1.6-10,2.7-1.3.8-2.2,1.9-2.2,3.5,0,2.4,2.1,4.1,5.2,4.1s7-2.6,7-7Z"/>
    <path class="st0" d="M1000.8,203c-.5-1-.7-2.2-.7-4v-16.1h-5.2v-5.8h5.2v-9.5h7.5v9.5h6.2v5.8h-6.2v15c0,2.7,1.3,3.6,3.6,3.6s1.9,0,2.8-.2v5.7c-1.6.3-3.2.5-5.2.5-4.1,0-6.9-1.5-8-4.4Z"/>
    <path class="st0" d="M1019.5,165.3h7.5v7.7h-7.5v-7.7ZM1019.5,177.1h7.5v30h-7.5v-30Z"/>
    <path class="st0" d="M1032.7,192.1c0-8.8,5.7-15.7,15.3-15.7s15.3,7,15.3,15.7-5.7,15.7-15.3,15.7-15.3-6.9-15.3-15.7ZM1055.6,192.1c0-5.7-2.5-10.1-7.5-10.1s-7.6,4.4-7.6,10.1,2.5,10.1,7.6,10.1,7.5-4.4,7.5-10.1Z"/>
    <path class="st0" d="M1069,177.1h7.4v4h0c1.6-2.5,4.9-4.7,9.4-4.7,6.5,0,10.6,3.9,10.6,11.5v19.2h-7.5v-16.6c0-4.8-1-8.1-5.5-8.1s-6.9,3.6-6.9,8.2v16.5h-7.5v-30Z"/>
  </g>
</svg>