<?xml version="1.0" encoding="UTF-8"?>
<svg xmlns="http://www.w3.org/2000/svg" version="1.1" viewBox="0 0 2048 2732">
  <!-- Generator: Adobe Illustrator 30.3.0, SVG Export Plug-In . SVG Version: 2.1.3 Build 182)  -->
  <defs>
    <style>
      .st0, .st1, .st2, .st3, .st4, .st5, .st6, .st7, .st8, .st9 {
        fill: #e6ffa7;
      }

      .st0, .st10, .st3, .st11, .st12, .st5, .st6, .st13, .st14 {
        stroke-miterlimit: 10;
      }

      .st0, .st10, .st11, .st5, .st6, .st13 {
        stroke: #2a2828;
      }

      .st0, .st11 {
        stroke-width: 3px;
      }

      .st1, .st7, .st8, .st9 {
        font-family: BaselGrotesk-Medium, 'Basel Grotesk';
        font-weight: 500;
      }

      .st1, .st8 {
        font-size: 53px;
      }

      .st10 {
        stroke-width: 20px;
      }

      .st10, .st11, .st12, .st13 {
        fill: none;
      }

      .st15 {
        fill: #4d4d4d;
      }

      .st16 {
        fill: #ff7a65;
      }

      .st2 {
        font-family: BaselClassic-Black, 'Basel Classic';
        font-size: 94px;
        font-weight: 800;
      }

      .st3, .st12, .st14 {
        stroke: #e6ffa7;
      }

      .st11 {
        stroke-linecap: round;
      }

      .st17 {
        font-family: BaselGrotesk-Regular, 'Basel Grotesk';
        font-size: 49.59px;
      }

      .st17, .st14, .st18 {
        fill: #2a2828;
      }

      .st5, .st13 {
        stroke-width: 2px;
      }

      .st19, .st20, .st8 {
        display: none;
      }

      .st20 {
        fill: #fff9dc;
      }

      .st7 {
        font-size: 63px;
      }

      .st9 {
        font-size: 69px;
      }
    </style>
  </defs>
  <g id="Background" class="st19">
    <rect class="st18" x="-24.71" y="-15.57" width="2091.43" height="2771.43"/>
  </g>
  <g id="Map">
    <polygon class="st20" points="974.08 2085.08 934.41 1902.27 1108.5 1959.56 1075.44 2036.69 1152.57 1981.6 1132.74 1902.27 1148.16 1862.6 1203.25 1578.33 861.69 1067.1 694.22 954.71 608.28 943.69 575.22 959.12 575.22 937.08 606.07 910.64 586.24 800.46 522.34 820.29 504.71 800.46 548.78 763 489.28 626.37 469.45 533.82 489.28 533.82 416.56 428.05 405.55 295.83 371.76 436.86 341.64 399.4 326.22 342.11 299.77 361.94 299.77 403.81 262.31 394.99 200.61 271.59 200.61 231.93 136.7 187.85 165.35 126.15 97.04 139.37 45.05 101.91 45.05 -17.08 1953.85 -17.08 1953.85 2085.08 974.08 2085.08"/>
    <polygon class="st15" points="196.2 190.06 601.67 313.46 1132.74 408.22 1425.82 439.07 1408.19 943.69 1397.17 1298.48 1498.54 1362.38 1602.11 1516.63 1672.62 1556.3 1721.1 1642.24 1804.84 1725.98 1824.67 1840.56 1886.37 1906.67 1566.85 1906.67 1342.08 1906.67 1126.13 1891.25 1073.24 1858.19 1082.06 1831.75 1062.22 1822.94 1066.63 1772.25 1041.29 1794.29 1011.54 1728.18 977.41 1743.61 938.82 1717.16 954.25 1666.48 925.6 1653.26 813.21 1620.2 830.84 1573.93 744.9 1554.09 707.44 1521.04 744.9 1479.17 709.64 1448.32 681 1349.16 650.15 1327.12 628.11 1254.4 652.35 1197.11 614.89 1181.68 577.43 1111.17 599.46 1091.34 559.8 1062.65 575.22 1014.21 597.26 1018.62 654.55 862.16 539.97 763 467.25 441.27 438.6 421.44 412.16 291.42 339.44 298.03 301.98 339.9 246.89 348.72 196.2 190.06"/>
    <polygon class="st15" points="438.6 1305.09 414.36 1241.18 438.6 1186.09 392.32 1186.09 415.46 1161.85 467.25 1062.65 429.79 1062.65 407.75 1115.58 387.18 1100.88 412.16 1083.99 414.36 1062.65 356.33 1027.43 349.72 1100.15 375.43 1142.02 373.96 1175.07 384.98 1179.48 380.57 1219.88 398.2 1271.3 426.85 1313.9 438.6 1305.09"/>
    <polygon class="st15" points="1007.13 1930.91 977.41 1822.94 896.95 1772.25 841.86 1659.87 643.54 1545.28 608.28 1545.28 608.28 1576.13 643.54 1576.13 672.18 1598.17 645.74 1609.18 645.74 1644.44 694.22 1662.07 703.03 1688.52 729.48 1690.72 780.16 1738.1 744.9 1738.1 807.71 1796.49 807.71 1836.16 868.3 1836.16 859.49 1855.99 888.14 1884.64 977.41 1930.91 1007.13 1930.91"/>
    <polygon class="st4" points="1029.17 1902.27 999.45 1794.29 918.99 1743.61 863.9 1631.22 665.57 1516.63 630.31 1516.63 630.31 1547.48 665.57 1547.48 694.22 1569.52 667.78 1580.54 667.78 1615.8 716.26 1633.42 725.07 1659.87 751.51 1662.07 802.2 1709.45 766.94 1709.45 829.74 1767.85 829.74 1807.51 890.34 1807.51 881.53 1827.34 910.17 1855.99 999.45 1902.27 1029.17 1902.27"/>
    <polygon class="st4" points="460.64 1276.44 436.4 1212.53 460.64 1157.44 414.36 1157.44 437.5 1133.2 489.28 1034 451.82 1034 429.79 1086.93 409.22 1072.24 434.19 1055.34 436.4 1034 378.37 998.78 371.76 1071.5 397.47 1113.37 396 1146.43 407.01 1150.83 402.61 1191.23 420.24 1242.65 448.88 1285.25 460.64 1276.44"/>
    <polygon class="st4" points="1073.24 1261.01 1383.95 1329.33 1441.24 1377.81 1461.08 1377.81 1447.86 1355.77 1450.06 1319.41 1419.21 1269.83 1447.86 410.42 1154.77 379.57 623.7 284.81 218.24 161.41 268.92 320.07 324.01 311.26 361.47 269.39 434.19 262.78 460.64 392.79 489.28 412.62 562 734.35 676.59 833.51 619.3 989.97 597.26 985.56 581.83 1034 621.5 1062.69 599.46 1082.52 636.93 1153.04 674.39 1168.46 650.15 1225.76 672.18 1298.48 703.03 1320.51 829.74 1357.97 829.74 1322.72 999.45 1344.75 1073.24 1261.01"/>
    <polygon class="st4" points="1359.71 1496.8 1335.47 1624.61 1267.16 1659.87 1117.31 1659.87 1099.68 1622.41 1011.54 1622.41 850.68 1457.14 729.48 1492.39 766.94 1450.52 731.68 1419.67 703.03 1320.51 829.74 1357.97 829.74 1322.72 999.45 1344.75 1073.24 1261.01 1383.95 1329.33 1383.95 1404.25 1355.3 1437.3 1383.95 1485.78 1359.71 1496.8"/>
    <polygon class="st4" points="1588.89 1878.03 1555.83 1688.52 1588.89 1485.78 1624.14 1487.99 1520.57 1333.73 1419.21 1269.83 1450.06 1319.41 1447.86 1355.77 1461.08 1377.81 1441.24 1377.81 1383.95 1329.33 1383.95 1404.25 1355.3 1437.3 1383.95 1485.78 1359.71 1496.8 1335.47 1624.61 1267.16 1659.87 1275.97 1709.45 1324.45 1772.25 1324.45 1847.18 1359.71 1849.38 1364.12 1878.03 1588.89 1878.03"/>
    <polygon class="st4" points="1740.94 1878.03 1908.41 1878.03 1846.71 1811.92 1826.88 1697.33 1743.14 1613.59 1694.66 1527.65 1624.14 1487.99 1588.89 1485.78 1555.83 1688.52 1588.89 1878.03 1740.94 1878.03"/>
    <polygon class="st4" points="1244.94 1869.51 1364.12 1878.03 1359.71 1849.38 1324.45 1847.18 1324.45 1772.25 1275.97 1709.45 1267.16 1659.87 1117.31 1659.87 1099.68 1622.41 1011.54 1622.41 1011.54 1659.87 960.86 1688.52 999.45 1714.96 1033.58 1699.53 1063.32 1765.64 1088.67 1743.61 1084.26 1794.29 1104.09 1803.1 1095.28 1829.55 1148.16 1862.6 1244.94 1869.51"/>
    <polygon class="st4" points="930.05 1538.68 850.68 1457.14 729.48 1492.39 766.94 1525.45 852.88 1545.28 835.25 1591.56 947.63 1624.61 976.28 1637.83 960.86 1688.52 1011.54 1659.87 1011.54 1622.41 930.05 1538.68"/>
    <g id="Roads">
      <polyline class="st13" points="1124.21 1828.19 1184.98 1865.18 1255 1822.91 1267.16 1743.64 1256.32 1709.45 1280.1 1633.99 1356.73 1659.87 1404.29 1659.87 1425.42 1633.99 1445.65 1633.99 1445.65 1659.87 1540.36 1622.41 1595.84 1583.79 1606.41 1554.73 1636.8 1561.33 1676.43 1591.72 1708.14 1561.33"/>
      <polyline class="st13" points="630.31 1080.45 676.36 1098.95 758.27 1080.45 787.33 1021 852.07 991.94 882.45 1071.2 899.63 1117.44 928.69 1097.63 960.86 1147.83 1097.79 1195.39 1174.41 1224.45 1202.16 1209.92 1247.07 1224.45 1278.78 1224.45 1317.09 1249.55 1447.86 1355.77 1470.34 1347.31 1515.26 1370.14 1545.02 1370.14"/>
      <polyline class="st13" points="1280.1 1633.99 1258.96 1593.04 1289.35 1511.13 1225.94 1457.14 1203.48 1393.55 1208.76 1335.42 1221.97 1313.9 1203.48 1275.97 1202.16 1209.92 1208.76 1170.67 1188.95 1057.99 1212.73 1007.79 1295.96 991.94 1404.29 984.01 1356.73 910.03 1274.82 812.27 1249.72 805.66 1223.3 717.15 1252.36 652.42 1253.68 569.19 1225.94 552.01 1188.95 579.76 1116.29 574.47 1079.3 544.09 1055.52 550.69 1041.29 471.43 977.57 419.9 930.01 349.88 870.51 328.85 845.46 324.78 839.66 393.48 829.74 442.36 796.58 445 762.23 488.6 756.95 582.4 735.81 614.1 735.81 645.81 703.03 682.8 703.03 743.57 741.09 810.95 738.45 861.15 782.05 935.13 807.71 961.55 813.76 1009.14"/>
      <polyline class="st13" points="1636.8 1561.33 1656.62 1599.64 1692.28 1622.41 1725.31 1676.27 1746.45 1772.71 1746.45 1789.88 1725.31 1796.49 1746.45 1814.98 1746.45 1848.01 1718.71 1878.03 1701.53 1865.18 1624.14 1883.68 1616.98 1865.18 1585.28 1857.26 1582.63 1840.08 1520.54 1878.03 1416.18 1870.47 1377.86 1845.37 1336.91 1816.3 1324.45 1847.18 1305.86 1858.58 1255 1822.91 1323.7 1730.43 1356.73 1659.87"/>
      <polyline class="st13" points="1391.07 1659.87 1404.29 1681.9 1438.63 1688.52 1450.52 1709.96 1434.67 1738.1 1433.35 1764.78 1404.29 1783.28 1420.8 1820.27 1416.18 1870.47"/>
      <polyline class="st13" points="1582.63 1840.08 1597.17 1822.91 1614.34 1822.91 1624.14 1804.41 1642.08 1804.41"/>
      <polyline class="st13" points="1447.86 1355.77 1473.97 1408.74 1450.52 1491.97 1456.2 1511.79 1416.18 1537.55 1391.07 1530.62 1378.85 1596.01 1355.55 1659.87"/>
    </g>
    <g id="Towns">
      <circle class="st5" cx="629.54" cy="1080.53" r="5.7"/>
      <circle class="st5" cx="758.54" cy="1080.53" r="5.7"/>
      <circle class="st5" cx="881.7" cy="1072.49" r="5.7"/>
      <circle class="st5" cx="1202.86" cy="1212" r="5.7"/>
      <circle class="st5" cx="1293.97" cy="990.84" r="5.7"/>
      <circle class="st5" cx="1404.29" cy="983.35" r="5.7"/>
      <circle class="st5" cx="1354.89" cy="908.91" r="5.7"/>
      <circle class="st5" cx="1252.96" cy="567.65" r="5.7"/>
      <circle class="st5" cx="676.99" cy="842.48" r="5.7"/>
      <circle class="st5" cx="856.31" cy="1383.5" r="5.7"/>
      <circle class="st5" cx="1208.56" cy="1340.88" r="5.7"/>
      <circle class="st5" cx="1225.32" cy="1457.14" r="5.7"/>
      <circle class="st5" cx="1355.55" cy="1659.87" r="5.7"/>
      <circle class="st5" cx="1149.56" cy="1688.52" r="5.7"/>
      <circle class="st5" cx="1444.8" cy="1659.87" r="5.7"/>
      <circle class="st5" cx="1545.02" cy="1622.41" r="5.7"/>
      <circle class="st5" cx="1323.2" cy="1728.2" r="5.7"/>
      <circle class="st5" cx="1450.5" cy="1715.15" r="5.7"/>
      <circle class="st5" cx="1433.82" cy="1765.17" r="5.7"/>
      <circle class="st5" cx="1421.87" cy="1816.55" r="5.7"/>
      <circle class="st5" cx="1612.36" cy="1822.25" r="5.7"/>
      <circle class="st5" cx="1520.51" cy="1878.03" r="5.7"/>
      <circle class="st5" cx="1582.63" cy="1840.08" r="5.7"/>
      <circle class="st5" cx="1726.42" cy="1793.17" r="5.7"/>
      <circle class="st5" cx="1746.45" cy="1816.55" r="5.7"/>
      <circle class="st5" cx="1214.26" cy="1845.78" r="5.7"/>
      <circle class="st5" cx="1129.91" cy="1828.69" r="5.7"/>
      <circle class="st5" cx="1029.17" cy="1902.27" r="5.7"/>
      <circle class="st5" cx="997.2" cy="1793.17" r="5.7"/>
      <circle class="st5" cx="919.46" cy="1793.17" r="5.7"/>
      <circle class="st5" cx="908.06" cy="1722.51" r="5.7"/>
      <circle class="st5" cx="886.76" cy="1677.12" r="5.7"/>
      <circle class="st5" cx="723.78" cy="1549.03" r="5.7"/>
      <circle class="st5" cx="441.04" cy="1061.1" r="5.7"/>
    </g>
  </g>
  <g id="Pins" class="st19">
    <g>
      <circle class="st16" cx="1371.7" cy="1456.75" r="19.32"/>
      <polygon class="st16" points="1371.7 1510.62 1390.22 1462.27 1353.18 1462.27 1371.7 1510.62"/>
    </g>
    <g>
      <circle class="st16" cx="1000.49" cy="1833.39" r="19.32"/>
      <polygon class="st16" points="1000.49 1887.27 1019.01 1838.91 981.97 1838.91 1000.49 1887.27"/>
    </g>
    <g>
      <circle class="st16" cx="1138.56" cy="1769.54" r="19.32"/>
      <polygon class="st16" points="1138.56 1823.41 1157.08 1775.06 1120.05 1775.06 1138.56 1823.41"/>
    </g>
    <g>
      <circle class="st16" cx="981.17" cy="1726.06" r="19.32"/>
      <polygon class="st16" points="981.17 1779.94 999.69 1731.58 962.65 1731.58 981.17 1779.94"/>
    </g>
    <g>
      <circle class="st16" cx="935.12" cy="1726.06" r="19.32"/>
      <polygon class="st16" points="935.12 1779.94 953.64 1731.58 916.6 1731.58 935.12 1779.94"/>
    </g>
    <g>
      <circle class="st16" cx="1383.95" cy="1599.43" r="19.32"/>
      <polygon class="st16" points="1383.95 1653.31 1402.47 1604.95 1365.43 1604.95 1383.95 1653.31"/>
    </g>
    <g>
      <circle class="st16" cx="1342.46" cy="1589.56" r="19.32"/>
      <polygon class="st16" points="1342.46 1643.44 1360.98 1595.08 1323.94 1595.08 1342.46 1643.44"/>
    </g>
    <g>
      <circle class="st16" cx="1696.92" cy="1713.64" r="19.32"/>
      <polygon class="st16" points="1696.92 1767.52 1715.43 1719.16 1678.4 1719.16 1696.92 1767.52"/>
    </g>
    <g>
      <circle class="st16" cx="1098.34" cy="1745.39" r="19.32"/>
      <polygon class="st16" points="1098.34 1799.26 1116.86 1750.9 1079.82 1750.9 1098.34 1799.26"/>
    </g>
  </g>
  <g id="Title" class="st19">
    <text class="st2" transform="translate(1248.4 162.88)"><tspan x="0" y="0">Discover Parks </tspan><tspan x="0" y="112.8">Virtual Tours</tspan></text>
  </g>
  <g id="Park_specific" class="st19">
    <rect class="st14" x="1003.22" y="788.44" width="746.3" height="632.88" rx="39.23" ry="39.23"/>
    <text class="st7" transform="translate(1069.17 888.76)"><tspan x="0" y="0">Wells Gray</tspan></text>
    <g id="Explore_Button">
      <path class="st6" d="M1088.59,1313.42h313.08c11.78,0,21.35,9.57,21.35,21.35v34.65c0,11.78-9.57,21.35-21.35,21.35h-313.08c-11.78,0-21.35-9.57-21.35-21.35v-34.65c0-11.78,9.57-21.35,21.35-21.35Z"/>
      <g>
        <line class="st10" x1="1298.58" y1="1352.1" x2="1346.93" y2="1352.1"/>
        <polygon class="st18" points="1342.37 1318.08 1342.37 1386.11 1376.37 1352.1 1342.37 1318.08"/>
      </g>
      <text class="st17" transform="translate(1093.93 1367.5)"><tspan x="0" y="0" xml:space="preserve">Explore  </tspan></text>
    </g>
    <g>
      <circle class="st0" cx="1737.03" cy="811.43" r="36.28"/>
      <line class="st11" x1="1718.34" y1="791.6" x2="1754.41" y2="828.72"/>
      <line class="st11" x1="1719.12" y1="829.54" x2="1755.72" y2="792.95"/>
    </g>
    <rect class="st12" x="1067.24" y="939.74" width="621.52" height="334.62" rx="42.38" ry="42.38"/>
  </g>
  <g id="Park_List" class="st19">
    <rect class="st14" x="109.56" y="1964.1" width="1052.92" height="658.51" rx="39.23" ry="39.23"/>
    <rect class="st14" x="109.56" y="1962.93" width="1052.92" height="116.25" rx="39.23" ry="39.23"/>
    <rect class="st14" x="137.29" y="2103.15" width="33.09" height="494.44" rx="12.56" ry="12.56"/>
    <rect class="st3" x="137.29" y="2135.44" width="33.09" height="256.2" rx="12.56" ry="12.56"/>
    <text class="st9" transform="translate(437.45 2040.77)"><tspan x="0" y="0">Virtual Tours</tspan></text>
    <text class="st8" transform="translate(202.4 1953.87)"><tspan x="0" y="0">Wells Gray</tspan></text>
    <text class="st8" transform="translate(202.4 2057.09)"><tspan x="0" y="0">Cypress </tspan></text>
    <text class="st1" transform="translate(200.15 2160.32)"><tspan x="0" y="0">Porteau Cove </tspan></text>
    <text class="st1" transform="translate(199.21 2263.54)"><tspan x="0" y="0">EC Manning </tspan></text>
    <text class="st1" transform="translate(199.21 2366.76)"><tspan x="0" y="0">Rathtrevor Beach </tspan></text>
    <text class="st1" transform="translate(200.15 2464.78)"><tspan x="0" y="0">MacMillan</tspan></text>
    <text class="st1" transform="translate(199.4 2562.8)"><tspan x="0" y="0">Goldstream</tspan></text>
    <g id="Explore_Button1" data-name="Explore_Button">
      <path class="st6" d="M778.76,2104.65h313.08c11.78,0,21.35,9.57,21.35,21.35v34.65c0,11.78-9.57,21.35-21.35,21.35h-313.08c-11.78,0-21.35-9.57-21.35-21.35v-34.65c0-11.78,9.57-21.35,21.35-21.35Z"/>
      <g>
        <line class="st10" x1="988.75" y1="2143.33" x2="1037.09" y2="2143.33"/>
        <polygon class="st18" points="1032.53 2109.31 1032.53 2177.34 1066.54 2143.33 1032.53 2109.31"/>
      </g>
      <text class="st17" transform="translate(784.09 2158.73)"><tspan x="0" y="0" xml:space="preserve">Explore  </tspan></text>
    </g>
    <g id="Explore_Button2" data-name="Explore_Button">
      <path class="st6" d="M778.58,2207.87h313.08c11.78,0,21.35,9.57,21.35,21.35v34.65c0,11.78-9.57,21.35-21.35,21.35h-313.08c-11.78,0-21.35-9.57-21.35-21.35v-34.65c0-11.78,9.57-21.35,21.35-21.35Z"/>
      <g>
        <line class="st10" x1="988.57" y1="2246.55" x2="1036.91" y2="2246.55"/>
        <polygon class="st18" points="1032.35 2212.53 1032.35 2280.57 1066.36 2246.55 1032.35 2212.53"/>
      </g>
      <text class="st17" transform="translate(783.91 2261.96)"><tspan x="0" y="0" xml:space="preserve">Explore  </tspan></text>
    </g>
    <g id="Explore_Button3" data-name="Explore_Button">
      <path class="st6" d="M779.36,2313.28h313.08c11.78,0,21.35,9.57,21.35,21.35v34.65c0,11.78-9.57,21.35-21.35,21.35h-313.08c-11.78,0-21.35-9.57-21.35-21.35v-34.65c0-11.78,9.57-21.35,21.35-21.35Z"/>
      <g>
        <line class="st10" x1="989.35" y1="2351.96" x2="1037.7" y2="2351.96"/>
        <polygon class="st18" points="1033.14 2317.94 1033.14 2385.97 1067.14 2351.96 1033.14 2317.94"/>
      </g>
      <text class="st17" transform="translate(784.69 2367.36)"><tspan x="0" y="0" xml:space="preserve">Explore  </tspan></text>
    </g>
    <g id="Explore_Button4" data-name="Explore_Button">
      <path class="st6" d="M778.58,2411.22h313.08c11.78,0,21.35,9.57,21.35,21.35v34.65c0,11.78-9.57,21.35-21.35,21.35h-313.08c-11.78,0-21.35-9.57-21.35-21.35v-34.65c0-11.78,9.57-21.35,21.35-21.35Z"/>
      <g>
        <line class="st10" x1="988.57" y1="2449.89" x2="1036.91" y2="2449.89"/>
        <polygon class="st18" points="1032.35 2415.87 1032.35 2483.91 1066.36 2449.89 1032.35 2415.87"/>
      </g>
      <text class="st17" transform="translate(783.91 2465.3)"><tspan x="0" y="0" xml:space="preserve">Explore  </tspan></text>
    </g>
    <g id="Explore_Button5" data-name="Explore_Button">
      <path class="st6" d="M778.58,2509.15h313.08c11.78,0,21.35,9.57,21.35,21.35v34.65c0,11.78-9.57,21.35-21.35,21.35h-313.08c-11.78,0-21.35-9.57-21.35-21.35v-34.65c0-11.78,9.57-21.35,21.35-21.35Z"/>
      <g>
        <line class="st10" x1="988.57" y1="2547.82" x2="1036.91" y2="2547.82"/>
        <polygon class="st18" points="1032.35 2513.81 1032.35 2581.84 1066.36 2547.82 1032.35 2513.81"/>
      </g>
      <text class="st17" transform="translate(783.91 2563.23)"><tspan x="0" y="0" xml:space="preserve">Explore  </tspan></text>
    </g>
  </g>
</svg>